<svg id="svg" version="1.1" xmlns="http://www.w3.org/2000/svg" xmlns:xlink="http://www.w3.org/1999/xlink" width="400" height="400" viewBox="0, 0, 400,400"><g id="svgg"><path id="path0" d="M110.841 93.806 C 109.744 96.139,97.463 124.522,85.849 151.563 C 79.620 166.064,73.948 179.248,73.244 180.859 C 65.802 197.896,55.537 221.690,52.325 229.353 C 50.132 234.586,46.846 242.383,45.024 246.680 C 43.201 250.977,41.640 254.668,41.554 254.883 C 41.453 255.136,45.564 255.322,53.262 255.413 L 65.127 255.552 66.305 252.678 C 66.954 251.098,67.780 248.891,68.142 247.774 C 68.786 245.786,68.845 245.731,71.021 245.100 C 72.242 244.746,78.516 242.787,84.961 240.748 C 95.710 237.346,113.037 231.895,119.089 230.011 C 120.457 229.586,121.809 229.148,122.094 229.038 C 122.418 228.914,123.072 229.655,123.843 231.021 C 125.308 233.616,124.900 233.566,128.516 231.598 C 142.757 223.847,150.881 213.590,154.245 199.114 C 155.106 195.410,155.887 195.182,156.606 198.424 C 158.082 205.077,152.311 216.974,143.518 225.407 C 138.846 229.887,134.205 232.873,124.397 237.707 C 97.239 251.093,83.984 268.266,83.984 290.067 L 83.984 293.750 91.457 293.750 L 98.929 293.750 98.667 290.723 C 98.221 285.580,99.148 279.297,100.352 279.297 C 101.441 279.297,146.432 288.839,156.543 291.215 C 157.144 291.356,157.422 291.709,157.422 292.333 C 157.422 293.356,159.952 293.750,166.520 293.750 L 169.641 293.750 169.432 288.379 C 168.881 274.212,163.159 259.848,150.756 241.499 C 147.474 236.643,147.462 237.318,150.884 234.453 C 167.880 220.222,174.334 195.091,166.781 172.548 C 165.694 169.302,153.116 140.704,138.315 107.825 C 135.078 100.635,132.033 94.368,131.547 93.897 C 130.705 93.082,130.220 93.030,121.061 92.768 L 111.457 92.494 110.841 93.806 M126.410 128.423 C 138.746 151.502,138.053 150.434,140.910 150.762 L 142.773 150.977 143.795 154.102 C 145.016 157.833,149.898 165.937,153.324 169.917 L 155.664 172.636 159.473 172.646 C 164.113 172.658,164.119 172.676,161.275 177.360 C 159.839 179.725,158.019 181.885,154.872 184.961 C 149.088 190.614,149.236 190.232,149.814 198.047 L 150.088 201.758 147.273 204.446 C 144.288 207.295,144.359 207.105,145.131 210.211 C 145.336 211.035,145.119 211.546,144.055 212.750 C 143.322 213.579,142.252 215.078,141.677 216.081 C 139.771 219.400,134.303 223.340,133.047 222.298 C 132.707 222.016,130.167 218.773,127.404 215.091 C 116.114 200.051,108.291 195.631,91.289 194.691 C 87.887 194.503,86.348 194.277,86.475 193.985 C 87.390 191.863,92.583 180.368,94.521 176.172 C 95.861 173.271,99.473 165.186,102.548 158.203 C 107.573 146.791,111.186 138.850,118.177 123.849 C 119.423 121.175,120.443 118.766,120.443 118.495 C 120.443 117.424,121.236 118.744,126.410 128.423 M245.882 170.656 C 242.654 172.123,241.412 174.657,241.408 179.785 L 241.406 182.813 238.867 182.813 L 236.328 182.813 236.328 185.352 L 236.328 187.891 238.867 187.891 L 241.406 187.891 241.406 199.414 L 241.406 210.938 244.434 210.938 L 247.461 210.938 247.352 199.414 L 247.243 187.891 250.965 187.891 L 254.688 187.891 254.688 185.352 L 254.688 182.813 250.934 182.813 L 247.180 182.813 247.330 179.841 C 247.535 175.795,248.379 175.000,252.470 175.000 L 255.288 175.000 255.280 172.754 C 255.272 170.031,255.195 169.983,250.781 169.958 C 248.362 169.944,247.033 170.134,245.882 170.656 M278.253 171.638 C 276.799 172.889,276.729 175.272,278.104 176.736 C 280.148 178.911,284.375 177.502,284.375 174.646 C 284.375 171.171,280.825 169.427,278.253 171.638 M290.234 190.820 L 290.234 210.938 293.164 210.938 L 296.094 210.938 296.094 209.103 L 296.094 207.269 297.363 208.473 C 304.645 215.383,316.012 210.266,317.555 199.383 C 319.436 186.104,307.407 176.925,297.949 184.423 L 296.484 185.584 296.484 178.143 L 296.484 170.703 293.359 170.703 L 290.234 170.703 290.234 190.820 M322.785 171.638 C 320.271 173.800,321.978 177.734,325.430 177.734 C 327.587 177.734,328.906 176.400,328.906 174.219 C 328.906 170.996,325.299 169.476,322.785 171.638 M213.631 172.949 C 213.405 173.540,210.223 182.109,206.560 191.992 C 202.896 201.875,199.813 210.188,199.707 210.465 C 199.556 210.859,200.272 210.944,202.968 210.856 L 206.422 210.742 207.949 206.348 L 209.477 201.953 217.406 201.953 L 225.334 201.953 226.094 204.004 C 226.512 205.132,227.252 207.153,227.737 208.496 L 228.620 210.938 232.082 210.938 L 235.544 210.938 234.844 209.082 C 234.459 208.062,231.164 199.272,227.523 189.551 L 220.902 171.875 217.473 171.875 C 214.092 171.875,214.037 171.890,213.631 172.949 M220.312 187.665 C 221.816 192.125,223.047 195.890,223.047 196.032 C 223.047 196.173,220.499 196.289,217.384 196.289 C 213.871 196.289,211.718 196.141,211.716 195.898 C 211.710 195.386,217.334 179.313,217.471 179.450 C 217.529 179.508,218.807 183.205,220.312 187.665 M269.145 182.797 C 267.806 183.259,266.522 184.059,265.727 184.927 L 264.453 186.317 264.453 184.565 L 264.453 182.813 261.426 182.813 L 258.398 182.813 258.398 196.875 L 258.398 210.938 261.426 210.938 L 264.453 210.938 264.455 202.441 C 264.458 190.227,265.711 187.891,272.253 187.891 L 274.219 187.891 274.219 184.961 L 274.219 182.031 272.754 182.044 C 271.948 182.051,270.324 182.390,269.145 182.797 M342.822 182.648 C 331.056 186.399,329.622 204.597,340.658 210.111 C 347.819 213.690,356.907 210.829,360.049 204.007 C 365.716 191.701,355.225 178.694,342.822 182.648 M277.734 196.875 L 277.734 210.938 280.859 210.938 L 283.984 210.938 283.984 196.875 L 283.984 182.813 280.859 182.813 L 277.734 182.813 277.734 196.875 M322.266 196.875 L 322.266 210.938 325.391 210.938 L 328.516 210.938 328.516 196.875 L 328.516 182.813 325.391 182.813 L 322.266 182.813 322.266 196.875 M307.952 188.687 C 314.828 193.394,311.653 206.278,303.626 206.241 C 298.056 206.216,295.053 201.428,296.158 194.336 C 297.082 188.408,303.237 185.460,307.952 188.687 M350.699 188.243 C 353.590 189.726,355.105 192.280,355.381 196.136 C 356.262 208.453,340.452 210.229,339.186 197.955 C 338.431 190.640,344.836 185.237,350.699 188.243 M89.103 202.739 C 94.900 203.377,105.078 206.828,105.078 208.156 C 105.078 208.483,78.552 213.448,78.276 213.172 C 78.079 212.975,80.652 206.634,82.042 203.894 C 82.882 202.237,83.551 202.128,89.103 202.739 M114.458 217.068 C 117.975 221.532,118.497 222.651,117.067 222.659 C 116.811 222.660,106.934 225.450,95.117 228.859 C 68.847 236.437,71.094 235.913,71.094 234.464 C 71.094 233.034,72.957 225.543,73.648 224.198 C 74.125 223.267,74.906 223.034,85.224 220.732 C 91.310 219.375,99.541 217.509,103.516 216.584 C 112.910 214.400,112.336 214.375,114.458 217.068 M271.484 236.133 L 271.484 250.000 273.047 250.000 L 274.609 250.000 274.609 236.133 L 274.609 222.266 273.047 222.266 L 271.484 222.266 271.484 236.133 M315.931 224.054 C 315.438 225.136,315.745 225.988,316.890 226.711 C 318.574 227.773,320.494 224.948,319.063 223.516 C 318.195 222.648,316.433 222.951,315.931 224.054 M205.376 233.309 C 203.283 238.729,200.966 244.702,200.226 246.582 L 198.881 250.000 200.710 249.998 L 202.539 249.997 203.711 246.823 L 204.883 243.650 211.042 243.602 L 217.201 243.555 218.418 246.777 L 219.635 250.000 221.489 250.000 L 223.344 250.000 221.878 246.387 C 221.072 244.399,218.707 238.423,216.622 233.105 L 212.831 223.438 211.006 223.446 L 209.180 223.454 205.376 233.309 M303.125 228.125 L 303.125 230.859 301.367 230.859 C 299.619 230.859,299.609 230.867,299.609 232.227 C 299.609 233.584,299.622 233.594,301.343 233.594 L 303.076 233.594 303.198 240.658 L 303.320 247.722 304.596 248.861 C 305.738 249.880,306.148 250.000,308.502 250.000 L 311.133 250.000 311.133 248.633 C 311.133 247.269,311.129 247.266,309.338 247.266 C 306.405 247.266,306.250 246.886,306.250 239.715 L 306.250 233.594 308.594 233.594 L 310.938 233.594 310.938 232.227 L 310.938 230.859 308.594 230.859 L 306.250 230.859 306.250 228.125 L 306.250 225.391 304.688 225.391 L 303.125 225.391 303.125 228.125 M213.733 234.330 C 214.989 237.636,216.016 240.405,216.016 240.483 C 216.016 240.561,213.818 240.625,211.133 240.625 C 208.447 240.625,206.250 240.467,206.250 240.273 C 206.250 240.002,209.388 231.352,210.800 227.734 C 211.003 227.214,211.052 227.214,211.240 227.734 C 211.356 228.057,212.478 231.025,213.733 234.330 M233.758 231.188 C 232.882 231.598,231.783 232.418,231.317 233.011 L 230.469 234.090 230.469 232.475 L 230.469 230.859 228.906 230.859 L 227.344 230.859 227.344 240.430 L 227.344 250.000 228.881 250.000 L 230.418 250.000 230.541 243.194 C 230.690 234.961,231.725 233.199,236.413 233.205 C 240.276 233.209,241.149 235.085,241.184 243.456 L 241.211 249.997 242.915 249.999 L 244.618 250.000 244.474 243.050 C 244.339 236.550,244.266 235.977,243.352 234.199 C 241.679 230.950,237.243 229.557,233.758 231.188 M253.711 231.032 C 251.808 231.733,250.000 233.651,250.000 234.967 C 250.000 236.285,252.911 236.447,253.322 235.152 C 254.479 231.507,262.109 233.140,262.109 237.033 L 262.109 238.179 258.691 238.621 C 252.484 239.424,250.165 240.537,249.313 243.123 C 247.269 249.325,256.441 253.268,261.133 248.205 L 262.109 247.152 262.109 248.576 C 262.109 249.977,262.135 250.000,263.672 250.000 L 265.234 250.000 265.226 242.676 C 265.216 234.065,264.849 232.679,262.257 231.449 C 260.244 230.493,255.764 230.275,253.711 231.032 M330.857 230.834 C 325.531 232.454,323.015 237.993,324.831 244.106 C 326.608 250.092,334.168 252.410,339.356 248.559 C 340.477 247.727,342.069 245.425,341.728 245.131 C 340.576 244.135,339.095 243.813,338.874 244.510 C 336.841 250.914,327.539 247.565,327.539 240.430 C 327.539 232.861,334.910 230.385,338.873 236.623 C 339.101 236.983,341.406 235.745,341.406 235.262 C 341.406 232.429,334.770 229.643,330.857 230.834 M349.414 231.032 C 343.011 233.394,344.593 239.747,352.051 241.620 C 356.927 242.845,358.347 244.722,356.038 246.891 C 354.126 248.687,349.110 247.842,348.530 245.626 C 348.365 244.993,348.107 244.890,347.161 245.079 C 346.520 245.208,345.842 245.313,345.654 245.313 C 345.043 245.313,345.293 246.532,346.153 247.739 C 348.741 251.374,357.114 251.274,359.365 247.581 C 361.774 243.632,359.546 240.388,353.357 238.833 C 349.019 237.744,347.600 235.789,349.857 234.013 C 351.765 232.512,356.228 233.241,356.835 235.152 C 357.118 236.044,357.149 236.048,358.908 235.411 L 360.198 234.943 359.297 233.606 C 357.479 230.908,352.948 229.728,349.414 231.032 M279.024 231.348 C 279.134 231.616,280.921 235.959,282.995 240.997 L 286.764 250.159 286.092 251.918 C 285.124 254.455,283.969 255.469,282.049 255.469 L 280.469 255.469 280.469 257.086 L 280.469 258.703 282.449 258.468 C 286.837 257.948,286.794 258.012,292.799 242.871 L 297.563 230.859 295.886 230.859 L 294.209 230.859 293.202 233.496 C 292.649 234.946,291.334 238.501,290.280 241.396 L 288.365 246.660 287.811 245.303 C 287.506 244.556,286.136 241.001,284.767 237.402 L 282.277 230.859 280.550 230.859 C 279.321 230.859,278.881 231.000,279.024 231.348 M316.016 240.430 L 316.016 250.000 317.578 250.000 L 319.141 250.000 319.141 240.430 L 319.141 230.859 317.578 230.859 L 316.016 230.859 316.016 240.430 M262.107 241.504 C 262.097 245.506,258.399 248.769,254.875 247.885 C 252.300 247.238,251.426 244.138,253.384 242.598 C 254.527 241.699,255.251 241.467,258.303 241.021 C 261.864 240.502,262.110 240.533,262.107 241.504 M138.702 250.117 C 142.743 255.264,146.094 259.895,146.094 260.333 C 146.094 260.483,144.556 260.507,142.676 260.386 C 140.796 260.265,133.896 259.969,127.344 259.728 C 120.791 259.486,114.822 259.170,114.079 259.025 L 112.729 258.761 116.618 256.301 C 121.189 253.410,134.483 245.405,134.766 245.373 C 134.873 245.361,136.645 247.495,138.702 250.117 M122.656 266.229 C 131.143 266.989,140.965 267.719,144.484 267.852 L 150.882 268.092 152.175 270.929 C 153.615 274.089,156.077 281.553,155.778 281.852 C 155.672 281.958,148.220 280.823,139.218 279.331 C 130.217 277.838,118.281 275.889,112.695 275.000 C 107.109 274.111,102.319 273.313,102.049 273.227 C 101.266 272.976,106.039 264.841,106.967 264.845 C 107.110 264.846,114.170 265.468,122.656 266.229 " stroke="none" fill="#09575c" fill-rule="evenodd"></path><path id="path1" d="M0.000 200.000 L 0.000 400.000 200.000 400.000 L 400.000 400.000 400.000 200.000 L 400.000 0.000 200.000 0.000 L 0.000 0.000 0.000 200.000 M130.136 92.978 C 130.919 93.196,131.835 93.792,132.170 94.304 C 133.313 96.050,163.253 163.125,165.879 169.825 C 175.201 193.607,168.426 220.832,149.448 235.857 L 147.919 237.068 150.936 241.579 C 164.238 261.468,169.883 276.547,169.919 292.285 L 169.922 293.750 163.672 293.750 L 157.422 293.750 157.422 292.796 C 157.422 292.272,157.245 291.733,157.028 291.599 C 156.027 290.981,100.102 279.065,99.768 279.399 C 99.243 279.924,98.777 285.289,98.893 289.466 L 99.023 294.142 94.141 294.138 C 91.455 294.137,88.071 294.023,86.621 293.886 L 83.984 293.637 83.984 289.165 C 83.984 267.800,97.012 251.311,124.931 237.339 C 140.505 229.545,147.946 222.985,153.213 212.404 C 156.684 205.430,157.405 201.334,156.005 196.538 C 155.685 195.441,154.785 196.895,154.320 199.260 C 151.678 212.689,141.778 225.028,128.206 231.807 C 124.961 233.427,124.931 233.421,123.638 230.869 L 122.681 228.980 116.125 231.058 C 95.057 237.737,73.166 244.603,71.196 245.151 L 68.919 245.784 67.887 248.771 C 67.320 250.414,66.497 252.593,66.059 253.613 L 65.262 255.469 53.308 255.469 L 41.354 255.469 41.630 254.590 C 41.782 254.106,43.179 250.723,44.733 247.070 C 46.287 243.418,48.833 237.354,50.391 233.594 C 53.260 226.671,62.771 204.559,71.478 184.570 C 74.098 178.555,81.566 161.240,88.075 146.094 C 94.583 130.947,101.774 114.286,104.055 109.070 C 106.337 103.853,108.203 99.520,108.203 99.441 C 108.203 99.361,108.898 97.785,109.748 95.937 L 111.292 92.578 120.002 92.580 C 124.792 92.582,129.352 92.761,130.136 92.978 M118.179 124.130 C 111.689 138.096,108.191 145.821,108.305 145.935 C 108.372 146.002,109.827 145.808,111.538 145.503 C 118.868 144.197,122.538 145.089,121.017 147.807 C 120.411 148.891,120.813 149.316,124.094 151.061 C 127.286 152.758,130.078 152.870,130.078 151.301 C 130.078 150.454,134.878 150.799,135.895 151.719 C 136.486 152.254,137.059 152.391,138.044 152.231 C 139.621 151.975,140.211 152.482,141.369 155.092 C 144.212 161.502,148.903 169.074,152.068 172.363 L 154.229 174.609 156.705 174.602 C 159.544 174.593,162.960 173.816,163.190 173.126 C 163.305 172.781,162.308 172.656,159.442 172.656 L 155.538 172.656 153.202 169.949 C 151.918 168.460,149.938 165.691,148.803 163.797 C 147.668 161.902,146.268 159.648,145.692 158.789 C 145.116 157.930,144.432 156.523,144.173 155.664 C 142.726 150.864,142.669 150.781,140.803 150.781 C 138.165 150.781,138.568 151.397,126.756 129.297 C 123.598 123.389,120.978 118.515,120.933 118.466 C 120.888 118.417,119.649 120.966,118.179 124.130 M255.197 170.279 C 255.370 170.450,255.458 171.615,255.392 172.868 L 255.273 175.147 252.864 175.047 C 248.639 174.872,247.792 175.693,247.571 180.176 L 247.461 182.423 251.074 182.422 L 254.688 182.422 254.688 185.156 L 254.688 187.891 251.172 187.891 L 247.656 187.891 247.656 199.414 L 247.656 210.938 244.531 210.938 L 241.406 210.938 241.406 199.414 L 241.406 187.891 238.867 187.891 L 236.328 187.891 236.328 185.129 L 236.328 182.367 238.770 182.468 L 241.211 182.569 241.438 178.882 C 241.781 173.290,243.143 171.193,247.168 170.060 C 249.082 169.521,254.582 169.671,255.197 170.279 M283.165 171.387 C 286.262 173.938,283.505 178.924,279.638 177.766 C 275.589 176.553,276.432 170.703,280.656 170.703 C 281.679 170.703,282.660 170.970,283.165 171.387 M296.484 178.198 L 296.484 185.693 297.559 184.688 C 302.962 179.633,312.669 181.620,316.043 188.472 C 323.190 202.991,308.377 218.973,297.334 208.658 L 296.094 207.499 296.094 209.218 L 296.094 210.938 293.164 210.938 L 290.234 210.938 290.234 190.820 L 290.234 170.703 293.359 170.703 L 296.484 170.703 296.484 178.198 M327.997 171.638 C 330.489 173.782,328.747 177.912,325.351 177.912 C 323.360 177.912,321.484 176.103,321.484 174.183 C 321.484 171.202,325.614 169.589,327.997 171.638 M228.196 191.016 C 232.209 201.650,235.505 210.490,235.520 210.659 C 235.535 210.828,233.941 210.916,231.979 210.855 L 228.410 210.742 226.850 206.348 L 225.290 201.953 217.430 201.953 L 209.570 201.954 208.015 206.446 L 206.460 210.938 202.989 210.938 C 199.871 210.938,199.538 210.868,199.710 210.254 C 199.816 209.878,203.003 201.221,206.794 191.016 C 210.585 180.811,213.768 172.234,213.868 171.957 C 214.002 171.586,214.951 171.483,217.474 171.567 L 220.898 171.680 228.196 191.016 M94.296 177.021 C 93.712 178.165,91.697 182.573,89.816 186.816 L 86.396 194.531 89.389 194.534 C 103.097 194.549,114.099 199.009,121.570 207.580 C 123.086 209.319,124.487 210.918,124.684 211.133 C 124.881 211.348,124.418 210.151,123.654 208.474 C 122.076 205.009,122.022 204.581,122.902 202.489 C 124.521 198.637,123.423 193.796,119.891 189.217 L 118.329 187.194 118.984 184.589 C 119.787 181.391,119.347 180.078,117.471 180.078 C 116.817 180.078,115.825 179.658,115.163 179.102 C 113.563 177.755,111.370 177.680,108.984 178.891 C 104.919 180.955,101.569 180.603,98.640 177.804 C 95.304 174.617,95.502 174.653,94.296 177.021 M214.661 187.418 C 213.183 191.653,211.897 195.337,211.804 195.605 C 211.674 195.982,212.947 196.094,217.341 196.094 C 220.479 196.094,223.047 196.042,223.047 195.978 C 223.047 195.788,217.543 179.913,217.442 179.812 C 217.391 179.761,216.140 183.184,214.661 187.418 M274.219 184.907 L 274.219 187.782 271.872 187.995 C 265.492 188.573,264.844 189.830,264.844 201.620 L 264.844 210.938 261.523 210.938 L 258.203 210.938 258.203 196.680 L 258.203 182.422 261.328 182.422 L 264.453 182.422 264.453 184.405 L 264.453 186.388 265.511 185.130 C 266.932 183.442,270.036 182.040,272.363 182.035 L 274.219 182.031 274.219 184.907 M352.612 182.873 C 363.965 187.121,364.851 204.895,353.977 210.246 C 345.868 214.236,336.220 210.179,333.769 201.748 C 330.152 189.304,340.934 178.504,352.612 182.873 M283.984 196.680 L 283.984 210.938 280.859 210.938 L 277.734 210.938 277.734 196.680 L 277.734 182.422 280.859 182.422 L 283.984 182.422 283.984 196.680 M328.516 196.680 L 328.516 210.938 325.391 210.938 L 322.266 210.938 322.266 196.680 L 322.266 182.422 325.391 182.422 L 328.516 182.422 328.516 196.680 M300.977 187.916 C 295.333 189.577,294.187 201.847,299.375 205.054 C 305.195 208.651,311.471 204.393,311.432 196.875 C 311.397 190.016,306.908 186.169,300.977 187.916 M343.750 188.375 C 336.161 192.447,338.798 206.250,347.166 206.250 C 357.737 206.250,358.355 188.533,347.814 187.630 C 345.884 187.465,345.221 187.586,343.750 188.375 M80.369 207.898 C 79.157 210.738,78.215 213.111,78.277 213.172 C 78.338 213.234,83.470 212.333,89.682 211.171 C 95.894 210.010,101.943 208.905,103.125 208.716 L 105.273 208.374 103.394 207.261 C 98.701 204.482,91.896 202.734,85.766 202.734 L 82.573 202.734 80.369 207.898 M107.227 215.851 C 105.078 216.357,96.729 218.245,88.672 220.047 L 74.023 223.322 73.185 225.821 C 72.290 228.491,70.926 235.119,71.213 235.406 C 71.371 235.564,79.088 233.386,107.617 225.136 C 113.203 223.520,117.822 222.151,117.880 222.092 C 118.030 221.944,114.567 217.218,113.355 215.918 C 112.183 214.660,112.273 214.661,107.227 215.851 M274.609 236.133 L 274.609 250.000 273.047 250.000 L 271.484 250.000 271.484 236.133 L 271.484 222.266 273.047 222.266 L 274.609 222.266 274.609 236.133 M319.434 223.747 C 320.932 225.653,317.962 228.062,316.239 226.339 C 315.358 225.459,315.481 223.974,316.492 223.265 C 317.454 222.591,318.683 222.792,319.434 223.747 M213.727 225.391 C 214.091 226.357,216.408 232.299,218.877 238.593 L 223.365 250.038 221.398 249.922 L 219.430 249.805 218.358 246.875 L 217.286 243.945 211.081 243.838 L 204.876 243.732 203.762 246.866 L 202.649 250.000 200.697 250.000 C 199.289 250.000,198.800 249.864,198.944 249.512 C 200.004 246.921,208.028 226.362,208.479 225.079 L 209.071 223.400 211.068 223.516 C 213.044 223.632,213.072 223.651,213.727 225.391 M306.250 228.125 L 306.250 230.859 308.594 230.859 L 310.938 230.859 310.938 232.227 L 310.938 233.594 308.594 233.594 L 306.250 233.594 306.250 239.648 C 306.250 246.768,306.530 247.420,309.501 247.201 C 311.128 247.082,311.133 247.086,311.254 248.541 L 311.375 250.000 308.831 250.000 C 303.568 250.000,303.125 249.242,303.125 240.254 L 303.125 233.594 301.240 233.594 L 299.355 233.594 299.385 232.228 C 299.414 230.863,299.416 230.862,301.270 230.861 L 303.125 230.859 303.125 228.125 L 303.125 225.391 304.688 225.391 L 306.250 225.391 306.250 228.125 M210.549 228.711 C 210.048 229.964,206.250 240.258,206.249 240.366 C 206.249 240.401,208.419 240.376,211.072 240.311 L 215.895 240.191 214.641 236.990 C 213.952 235.230,212.854 232.383,212.202 230.664 L 211.017 227.539 210.549 228.711 M240.640 231.348 C 243.815 232.949,244.311 234.440,244.471 242.871 L 244.606 250.000 242.811 250.000 L 241.016 250.000 241.014 243.262 C 241.012 234.246,239.830 232.412,234.755 233.553 C 231.161 234.360,230.474 236.073,230.471 244.238 L 230.469 250.000 228.906 250.000 L 227.344 250.000 227.344 240.430 L 227.344 230.859 228.906 230.859 L 230.469 230.859 230.484 232.520 L 230.500 234.180 231.058 233.152 C 232.429 230.630,237.371 229.699,240.640 231.348 M262.420 231.396 C 264.998 232.745,265.231 233.647,265.233 242.285 L 265.234 250.000 263.672 250.000 C 262.136 250.000,262.109 249.976,262.109 248.580 L 262.109 247.160 261.339 248.140 C 257.632 252.852,249.023 250.464,249.023 244.724 C 249.023 241.028,251.412 239.480,258.496 238.581 C 262.421 238.084,262.515 237.998,261.700 235.661 C 260.790 233.050,255.882 232.427,253.880 234.668 C 252.412 236.311,249.364 236.603,249.811 235.059 C 250.973 231.033,257.889 229.024,262.420 231.396 M337.770 231.458 C 339.458 232.300,341.797 234.725,341.797 235.635 C 341.797 236.414,338.916 236.799,338.413 236.087 C 333.979 229.814,326.054 234.571,327.751 242.487 C 328.950 248.078,336.006 249.699,338.463 244.948 L 339.073 243.768 340.435 244.417 C 342.120 245.221,342.134 245.683,340.527 247.512 C 336.201 252.440,328.008 251.164,325.150 245.117 C 321.027 236.397,329.430 227.303,337.770 231.458 M355.877 230.858 C 358.842 231.681,360.822 234.876,358.785 235.548 C 357.531 235.962,357.389 235.913,356.299 234.693 C 354.170 232.310,348.828 233.108,348.828 235.808 C 348.828 236.949,350.517 238.047,353.288 238.708 C 358.660 239.988,360.321 241.532,360.072 245.014 C 359.609 251.492,348.569 252.795,345.439 246.742 C 344.744 245.397,344.820 245.304,346.843 245.033 C 347.927 244.888,348.438 244.966,348.438 245.279 C 348.438 245.532,348.869 246.170,349.396 246.697 C 351.398 248.699,357.031 247.570,357.031 245.167 C 357.031 243.362,355.962 242.650,351.714 241.627 C 347.055 240.505,344.839 237.880,345.753 234.569 C 346.670 231.248,351.245 229.571,355.877 230.858 M283.968 235.059 C 284.863 237.368,286.156 240.793,286.841 242.670 C 287.526 244.546,288.174 246.083,288.281 246.084 C 288.389 246.085,289.707 242.726,291.211 238.619 C 294.106 230.711,294.088 230.739,296.202 230.931 L 297.565 231.055 292.966 242.773 C 287.143 257.613,286.282 258.843,281.946 258.517 C 280.427 258.403,280.369 258.348,280.285 256.934 L 280.198 255.469 281.896 255.469 C 283.910 255.469,284.731 254.784,285.907 252.127 L 286.723 250.282 282.815 240.787 C 278.235 229.661,278.499 230.859,280.623 230.859 L 282.341 230.859 283.968 235.059 M319.531 240.430 L 319.531 250.000 317.773 250.000 L 316.016 250.000 316.016 240.430 L 316.016 230.859 317.773 230.859 L 319.531 230.859 319.531 240.430 M258.997 241.092 C 252.860 241.744,250.473 244.201,253.352 246.905 C 256.217 249.594,261.155 247.043,261.882 242.497 C 262.190 240.572,262.495 240.721,258.997 241.092 M125.000 251.305 C 119.951 254.348,115.152 257.300,114.336 257.863 L 112.851 258.888 117.265 259.143 C 125.383 259.611,138.828 260.149,142.490 260.153 L 146.114 260.156 143.757 256.934 C 139.571 251.212,135.076 245.702,134.622 245.737 C 134.379 245.756,130.049 248.261,125.000 251.305 M105.612 266.524 C 103.552 269.283,101.786 272.702,102.267 272.999 C 102.504 273.146,107.497 274.032,113.361 274.969 C 119.225 275.905,131.143 277.858,139.844 279.309 C 148.545 280.760,155.706 281.909,155.758 281.863 C 155.992 281.653,153.296 273.723,152.097 271.094 L 150.760 268.164 145.985 268.048 C 143.359 267.984,138.223 267.682,134.570 267.376 C 119.198 266.090,109.484 265.240,108.203 265.068 C 106.964 264.902,106.721 265.038,105.612 266.524 " stroke="none" fill="#fbfbfb" fill-rule="evenodd"></path><path id="path2" d="M116.016 145.336 C 117.487 145.585,117.286 145.622,114.780 145.565 C 113.036 145.525,111.879 145.646,112.008 145.856 C 112.138 146.065,111.631 146.118,110.794 145.983 C 109.810 145.823,109.440 145.883,109.620 146.174 C 109.798 146.462,109.540 146.512,108.815 146.330 C 108.170 146.169,107.838 146.210,107.978 146.435 C 108.104 146.640,108.053 146.867,107.863 146.939 C 106.779 147.351,95.274 174.738,95.928 175.351 C 96.416 175.810,96.509 175.826,96.274 175.411 C 95.811 174.596,97.981 176.222,99.588 177.896 C 100.411 178.752,101.322 179.308,101.932 179.324 C 102.844 179.349,102.863 179.381,102.148 179.698 C 101.649 179.919,102.002 179.944,103.125 179.768 C 104.092 179.616,105.615 179.492,106.510 179.492 C 107.406 179.492,108.109 179.316,108.073 179.102 C 108.037 178.887,108.314 178.735,108.687 178.764 C 109.074 178.795,109.257 178.640,109.111 178.405 C 108.951 178.145,109.105 178.088,109.527 178.249 C 109.972 178.420,110.105 178.358,109.923 178.064 C 109.730 177.752,109.984 177.699,110.782 177.885 C 111.611 178.078,111.757 178.043,111.328 177.752 C 110.885 177.452,111.122 177.355,112.305 177.352 C 113.372 177.349,114.182 177.625,114.862 178.225 C 115.409 178.707,115.585 178.926,115.253 178.711 C 114.749 178.385,114.727 178.421,115.117 178.923 C 115.375 179.254,116.245 179.570,117.051 179.624 C 118.603 179.728,119.335 180.153,119.953 181.308 C 120.360 182.069,120.029 184.097,119.546 183.798 C 119.385 183.699,119.330 184.095,119.423 184.680 C 119.558 185.529,119.505 185.625,119.159 185.156 C 118.721 184.563,118.856 185.737,119.451 187.695 C 119.581 188.125,119.697 188.652,119.707 188.867 C 119.718 189.082,119.990 189.262,120.313 189.267 C 120.635 189.272,120.875 189.573,120.847 189.936 C 120.818 190.298,120.994 190.557,121.237 190.512 C 121.481 190.467,121.656 190.735,121.626 191.109 C 121.596 191.495,121.751 191.678,121.985 191.533 C 122.245 191.373,122.303 191.527,122.141 191.948 C 122.000 192.317,122.031 192.528,122.211 192.416 C 122.693 192.118,123.581 193.984,123.228 194.554 C 123.021 194.890,123.085 194.944,123.434 194.729 C 123.826 194.486,123.882 194.674,123.678 195.547 C 123.484 196.377,123.520 196.523,123.810 196.094 C 124.367 195.271,124.353 200.382,123.795 201.830 C 123.134 203.542,122.708 206.655,123.174 206.367 C 123.415 206.218,123.469 206.385,123.313 206.792 C 123.172 207.161,123.209 207.368,123.397 207.252 C 123.870 206.959,124.752 209.220,124.391 209.802 C 124.191 210.127,124.262 210.176,124.615 209.957 C 124.987 209.728,125.065 209.814,124.894 210.261 C 124.723 210.705,124.849 210.847,125.329 210.754 C 125.761 210.671,126.031 210.892,126.079 211.367 C 126.120 211.775,126.180 212.417,126.213 212.793 C 126.303 213.816,128.113 216.069,128.601 215.767 C 128.862 215.606,128.914 215.686,128.737 215.973 C 128.433 216.466,132.540 222.266,133.193 222.266 C 133.392 222.266,133.748 221.958,133.984 221.582 C 134.345 221.006,134.371 221.046,134.153 221.837 L 133.894 222.776 135.404 221.864 C 138.180 220.186,140.584 217.940,141.791 215.894 C 142.449 214.779,143.532 213.220,144.197 212.428 C 145.302 211.114,145.369 210.881,144.969 209.733 C 144.220 207.584,144.443 207.068,147.325 204.293 L 150.119 201.602 149.812 198.164 C 149.132 190.528,149.097 190.618,154.860 184.961 C 160.570 179.356,164.125 173.807,161.989 173.834 C 161.702 173.838,161.748 174.000,162.109 174.258 C 162.555 174.575,162.386 174.622,161.406 174.453 C 160.687 174.329,160.213 174.385,160.334 174.581 C 160.864 175.439,154.614 175.496,153.818 174.639 C 153.411 174.202,153.421 174.161,153.869 174.417 C 154.240 174.629,154.326 174.582,154.135 174.273 C 153.979 174.021,153.680 173.922,153.470 174.052 C 153.015 174.333,150.296 171.563,150.578 171.106 C 150.685 170.933,150.467 170.552,150.093 170.259 C 149.470 169.771,149.458 169.791,149.951 170.508 C 150.246 170.938,150.024 170.793,149.457 170.187 C 148.890 169.580,148.544 168.894,148.688 168.661 C 148.831 168.429,148.778 168.344,148.570 168.473 C 148.361 168.602,147.884 168.190,147.511 167.557 C 147.137 166.924,146.929 166.406,147.048 166.406 C 147.168 166.406,146.900 166.041,146.454 165.595 C 146.008 165.148,145.742 164.524,145.864 164.207 C 146.006 163.837,145.923 163.731,145.632 163.911 C 145.327 164.099,145.264 163.972,145.437 163.520 C 145.590 163.122,145.537 162.947,145.308 163.089 C 144.960 163.303,144.753 162.787,144.876 162.012 C 144.901 161.851,144.736 161.719,144.508 161.719 C 144.281 161.719,144.192 161.561,144.311 161.369 C 144.430 161.177,144.246 160.912,143.903 160.780 C 143.535 160.639,143.374 160.292,143.510 159.937 C 143.637 159.606,143.580 159.434,143.383 159.556 C 143.038 159.769,142.342 158.316,142.501 157.715 C 142.543 157.554,142.392 157.422,142.164 157.422 C 141.937 157.422,141.859 157.246,141.992 157.031 C 142.125 156.816,142.029 156.641,141.778 156.641 C 141.527 156.641,141.427 156.369,141.555 156.034 C 141.683 155.701,141.633 155.524,141.443 155.642 C 141.026 155.899,140.532 154.763,140.842 154.262 C 140.963 154.066,140.865 153.906,140.625 153.906 C 140.385 153.906,140.315 153.687,140.469 153.418 C 140.624 153.149,140.606 153.060,140.431 153.219 C 140.255 153.379,139.896 153.331,139.634 153.113 C 139.371 152.895,138.406 152.642,137.490 152.551 C 136.573 152.460,135.638 152.200,135.411 151.974 C 135.185 151.748,134.410 151.563,133.688 151.563 C 132.801 151.563,132.465 151.417,132.652 151.115 C 132.850 150.796,132.604 150.749,131.797 150.951 C 131.174 151.107,130.521 151.487,130.347 151.797 C 130.173 152.107,129.865 152.258,129.663 152.134 C 129.462 152.009,129.297 152.112,129.297 152.362 C 129.297 152.613,129.033 152.717,128.711 152.593 C 128.389 152.469,128.125 152.501,128.125 152.664 C 128.125 152.826,127.770 152.986,127.335 153.018 C 126.894 153.051,126.653 152.904,126.789 152.685 C 126.922 152.468,126.794 152.324,126.504 152.364 C 125.438 152.510,124.960 152.333,125.233 151.893 C 125.417 151.595,125.338 151.549,125.001 151.757 C 124.680 151.956,124.296 151.806,123.964 151.352 C 123.675 150.956,123.438 150.787,123.438 150.977 C 123.438 151.166,123.161 150.980,122.823 150.563 C 122.484 150.146,122.328 150.039,122.475 150.325 C 122.672 150.709,122.419 150.679,121.515 150.211 C 120.839 149.862,120.390 149.409,120.516 149.205 C 122.103 146.638,120.403 144.874,116.446 144.981 L 114.258 145.039 116.016 145.336 " stroke="none" fill="#db8d3a" fill-rule="evenodd"></path><path id="path3" d="M122.754 92.867 C 123.989 92.944,126.011 92.944,127.246 92.867 C 128.481 92.789,127.471 92.726,125.000 92.726 C 122.529 92.726,121.519 92.789,122.754 92.867 M249.712 169.812 C 250.306 169.901,251.185 169.899,251.666 169.806 C 252.146 169.714,251.660 169.640,250.586 169.643 C 249.512 169.646,249.119 169.722,249.712 169.812 M255.185 172.266 C 255.185 173.232,255.261 173.628,255.354 173.145 C 255.447 172.661,255.447 171.870,255.354 171.387 C 255.261 170.903,255.185 171.299,255.185 172.266 M213.926 171.777 C 213.826 171.938,214.827 172.021,216.149 171.962 C 220.457 171.767,220.967 171.611,217.504 171.547 C 215.636 171.513,214.027 171.616,213.926 171.777 M247.387 179.883 C 247.389 181.172,247.462 181.652,247.549 180.950 C 247.636 180.248,247.634 179.193,247.545 178.606 C 247.456 178.019,247.384 178.594,247.387 179.883 M237.409 182.705 C 238.111 182.792,239.166 182.790,239.753 182.701 C 240.340 182.612,239.766 182.541,238.477 182.543 C 237.188 182.545,236.707 182.618,237.409 182.705 M249.134 182.710 C 250.269 182.789,252.027 182.789,253.040 182.708 C 254.054 182.628,253.125 182.564,250.977 182.565 C 248.828 182.566,247.999 182.631,249.134 182.710 M259.668 182.708 C 260.581 182.790,262.075 182.790,262.988 182.708 C 263.901 182.626,263.154 182.558,261.328 182.558 C 259.502 182.558,258.755 182.626,259.668 182.708 M279.199 182.708 C 280.112 182.790,281.606 182.790,282.520 182.708 C 283.433 182.626,282.686 182.558,280.859 182.558 C 279.033 182.558,278.286 182.626,279.199 182.708 M323.730 182.708 C 324.644 182.790,326.138 182.790,327.051 182.708 C 327.964 182.626,327.217 182.558,325.391 182.558 C 323.564 182.558,322.817 182.626,323.730 182.708 M258.379 196.875 C 258.379 204.502,258.432 207.622,258.495 203.809 C 258.559 199.995,258.559 193.755,258.495 189.941 C 258.432 186.128,258.379 189.248,258.379 196.875 M247.438 199.219 C 247.438 205.557,247.492 208.149,247.558 204.980 C 247.623 201.812,247.623 196.626,247.558 193.457 C 247.492 190.288,247.438 192.881,247.438 199.219 M170.020 192.383 C 170.025 193.242,170.105 193.548,170.198 193.062 C 170.292 192.576,170.288 191.873,170.190 191.499 C 170.092 191.126,170.016 191.523,170.020 192.383 M264.621 202.148 C 264.621 207.090,264.677 209.057,264.745 206.521 C 264.813 203.984,264.813 199.941,264.745 197.537 C 264.676 195.132,264.620 197.207,264.621 202.148 M84.478 202.624 C 85.072 202.714,85.951 202.711,86.431 202.619 C 86.912 202.526,86.426 202.453,85.352 202.455 C 84.277 202.458,83.884 202.534,84.478 202.624 M119.336 205.469 C 120.394 206.543,121.348 207.422,121.455 207.422 C 121.562 207.422,120.785 206.543,119.727 205.469 C 118.668 204.395,117.715 203.516,117.607 203.516 C 117.500 203.516,118.278 204.395,119.336 205.469 M304.594 211.604 C 305.080 211.698,305.783 211.694,306.157 211.597 C 306.530 211.499,306.133 211.422,305.273 211.427 C 304.414 211.431,304.108 211.511,304.594 211.604 M319.310 240.430 C 319.310 245.801,319.365 248.052,319.432 245.433 C 319.500 242.814,319.500 238.419,319.433 235.667 C 319.365 232.916,319.310 235.059,319.310 240.430 M241.171 244.141 C 241.171 247.256,241.232 248.530,241.306 246.973 C 241.380 245.415,241.380 242.866,241.306 241.309 C 241.232 239.751,241.171 241.025,241.171 244.141 M208.887 240.524 C 210.229 240.600,212.427 240.600,213.770 240.524 C 215.112 240.447,214.014 240.385,211.328 240.385 C 208.643 240.385,207.544 240.447,208.887 240.524 M42.676 255.358 C 43.267 255.447,44.233 255.447,44.824 255.358 C 45.415 255.268,44.932 255.195,43.750 255.195 C 42.568 255.195,42.085 255.268,42.676 255.358 M115.532 259.261 C 116.018 259.354,116.721 259.351,117.094 259.253 C 117.468 259.155,117.070 259.079,116.211 259.083 C 115.352 259.087,115.046 259.167,115.532 259.261 M123.735 259.651 C 124.221 259.745,124.924 259.741,125.298 259.643 C 125.671 259.546,125.273 259.469,124.414 259.474 C 123.555 259.478,123.249 259.558,123.735 259.651 M132.916 260.046 C 133.509 260.136,134.388 260.133,134.869 260.041 C 135.349 259.948,134.863 259.874,133.789 259.877 C 132.715 259.880,132.322 259.956,132.916 260.046 M143.652 260.432 C 144.136 260.525,144.927 260.525,145.410 260.432 C 145.894 260.339,145.498 260.263,144.531 260.263 C 143.564 260.263,143.169 260.339,143.652 260.432 M98.559 288.086 C 98.561 289.375,98.634 289.855,98.721 289.153 C 98.808 288.451,98.806 287.396,98.717 286.809 C 98.627 286.222,98.556 286.797,98.559 288.086 M169.656 291.406 C 169.656 292.803,169.727 293.374,169.814 292.676 C 169.900 291.978,169.900 290.835,169.814 290.137 C 169.727 289.438,169.656 290.010,169.656 291.406 M93.164 293.750 L 87.305 293.977 93.262 294.059 C 97.027 294.111,99.219 293.997,99.219 293.750 C 99.219 293.535,99.175 293.396,99.121 293.441 C 99.067 293.486,96.387 293.625,93.164 293.750 M158.301 293.639 C 158.892 293.729,159.858 293.729,160.449 293.639 C 161.040 293.550,160.557 293.476,159.375 293.476 C 158.193 293.476,157.710 293.550,158.301 293.639 " stroke="none" fill="#9ab6b5" fill-rule="evenodd"></path><path id="path4" d="M113.566 145.594 C 114.259 145.681,115.489 145.682,116.300 145.598 C 117.110 145.513,116.543 145.442,115.039 145.441 C 113.535 145.439,112.872 145.508,113.566 145.594 M120.313 149.394 C 120.313 149.501,120.840 149.862,121.484 150.195 C 122.129 150.529,122.656 150.713,122.656 150.606 C 122.656 150.499,122.129 150.138,121.484 149.805 C 120.840 149.471,120.313 149.287,120.313 149.394 M129.948 151.660 C 129.759 152.410,129.795 152.448,130.195 151.919 C 130.453 151.578,130.928 151.196,131.250 151.071 C 131.660 150.911,131.586 150.834,131.003 150.812 C 130.450 150.792,130.095 151.077,129.948 151.660 M123.828 151.347 C 123.828 151.455,124.355 151.815,125.000 152.148 C 125.645 152.482,126.172 152.667,126.172 152.559 C 126.172 152.452,125.645 152.091,125.000 151.758 C 124.355 151.425,123.828 151.240,123.828 151.347 M133.554 151.459 C 134.284 151.548,135.339 151.892,135.898 152.224 L 136.914 152.827 135.938 152.008 C 135.310 151.482,134.472 151.208,133.594 151.243 L 132.227 151.297 133.554 151.459 M138.477 152.625 C 138.906 152.729,139.591 153.104,139.998 153.458 C 140.705 154.072,140.718 154.062,140.277 153.223 C 139.959 152.616,139.487 152.358,138.756 152.389 C 137.941 152.424,137.876 152.479,138.477 152.625 M140.653 154.492 C 140.653 154.707,140.904 155.322,141.211 155.859 C 141.518 156.396,141.769 156.660,141.769 156.445 C 141.769 156.230,141.518 155.615,141.211 155.078 C 140.904 154.541,140.653 154.277,140.653 154.492 M142.969 159.375 C 143.407 160.234,143.854 160.938,143.961 160.938 C 144.069 160.938,143.798 160.234,143.359 159.375 C 142.921 158.516,142.474 157.813,142.367 157.813 C 142.260 157.813,142.530 158.516,142.969 159.375 M145.508 164.063 C 146.052 165.137,146.585 166.016,146.693 166.016 C 146.800 166.016,146.443 165.137,145.898 164.063 C 145.354 162.988,144.821 162.109,144.713 162.109 C 144.606 162.109,144.963 162.988,145.508 164.063 M147.537 167.609 C 151.039 173.579,155.367 176.235,159.628 175.029 C 160.389 174.814,159.750 174.738,157.617 174.790 L 154.492 174.865 152.265 172.743 C 151.041 171.576,149.385 169.673,148.587 168.514 C 146.997 166.205,146.422 165.710,147.537 167.609 M161.719 174.219 C 160.914 174.476,160.880 174.537,161.523 174.564 C 161.953 174.583,162.568 174.427,162.891 174.219 C 163.575 173.776,163.100 173.776,161.719 174.219 M98.325 177.351 L 100.752 179.845 103.989 179.817 C 106.707 179.794,107.534 179.624,109.140 178.762 C 111.819 177.324,116.016 177.886,116.016 179.682 C 116.016 179.900,116.627 180.078,117.374 180.078 C 119.513 180.078,120.154 181.351,119.360 184.024 C 118.509 186.889,118.565 187.252,120.175 189.352 C 123.763 194.032,124.602 197.948,123.019 202.635 L 122.210 205.031 124.072 208.863 C 125.097 210.971,125.896 212.840,125.848 213.017 C 125.801 213.194,125.943 213.228,126.163 213.091 C 126.437 212.922,126.435 212.600,126.155 212.078 C 125.930 211.657,125.868 211.113,126.019 210.869 C 126.184 210.602,126.118 210.534,125.853 210.698 C 124.477 211.548,122.719 204.934,123.633 202.344 C 125.147 198.052,123.858 193.249,119.830 188.169 C 118.970 187.084,118.969 187.072,119.651 184.470 C 120.449 181.429,119.898 180.060,117.727 179.688 C 117.100 179.580,115.959 179.009,115.191 178.418 C 113.411 177.050,111.672 177.029,109.148 178.347 C 107.626 179.141,106.600 179.363,104.211 179.418 L 101.195 179.486 99.328 177.709 C 96.339 174.864,95.676 174.628,98.325 177.351 " stroke="none" fill="#cc6c16" fill-rule="evenodd"></path></g></svg>